<?xml version="1.0" encoding="utf-8"?>
<!-- Generator: Adobe Illustrator 24.2.0, SVG Export Plug-In . SVG Version: 6.00 Build 0)  -->
<svg version="1.1" id="Layer_1" xmlns="http://www.w3.org/2000/svg" xmlns:xlink="http://www.w3.org/1999/xlink" x="0px" y="0px"
	 viewBox="0 0 133.4 93" style="enable-background:new 0 0 133.4 93;" xml:space="preserve">
<style type="text/css">
	.st0{fill:#FFFFFF;}
</style>
<path class="st0" d="M3.6,52h7.5l8.1,21.7L27.2,52h7.3L22,83.1h-6L3.6,52z"/>
<desc>Created with Sketch.</desc>
<rect x="-6.6" y="156" style="fill:none;" width="183.7" height="42.8"/>
<text transform="matrix(1 0 0 1 -6.5642 191.0797)" style="opacity:0.25; font-family:'Gotham-Bold'; font-size:48px;">Va  c  </text>
<path id="Shape_45_" class="st0" d="M130.9,64.1c-1.8,5.6-4,12.1-5.4,16.5c-0.4,1.3-0.8,2.3-1,3.1c-2.5,7.5-5.9,8.1-9.4,8.1h-1.2
	v0.9h2.6c3.6,0,6.6-0.8,8.9-7.7c1.3-3.7,4.6-13.4,6.9-20.8H130.9z"/>
<polygon id="Shape_44_" class="st0" points="121.6,72.5 118.4,64.1 117.3,64.1 117,64.1 121.1,74.4 "/>
<path id="Shape_43_" class="st0" d="M125.4,63.2L122,74.6l-0.8,2.9l-5.3-13.3l-0.4-0.9h-4.7l8.2,19.5l-0.1,0.2
	c-1.4,4.2-4.2,4.2-5.2,4.2h-1v3.7h2.1c3.3,0,6.2-0.6,8.5-7.4c0.3-0.8,0.6-1.9,1-3.1c1.5-4.3,3.6-10.7,5.3-16.2l0.3-0.9L125.4,63.2z"
	/>
<polygon id="Shape_49_" class="st0" points="88.8,83 88.8,83.9 94,83.9 94,64.9 93.2,64.9 93.2,83 "/>
<polygon id="Shape_48_" class="st0" points="88.1,61.6 88.1,62.4 93.1,62.4 93.1,57.6 92.3,57.6 92.3,61.6 "/>
<polygon id="Shape_47_" class="st0" points="88,64 88,82.1 88.8,82.1 92.3,82.1 92.3,64.9 92.3,64 "/>
<polygon id="Shape_46_" class="st0" points="87.3,56.8 87.3,60.7 88.1,60.7 91.4,60.7 91.4,57.6 91.4,56.8 "/>
<polygon id="Shape_52_" class="st0" points="101.6,82.7 102.4,83.5 106.8,83.5 109.3,83.5 109.3,78.8 108.4,78.8 108.4,82.7 "/>
<polygon id="Shape_51_" class="st0" points="104.8,68.3 104.8,77 105.7,77 105.7,76.7 105.7,69.1 110.5,69.1 110.5,64.4 109.6,64.4 
	109.6,68.3 "/>
<rect id="Rectangle-path_3_" x="104.2" y="58.5" class="st0" width="0.8" height="3.8"/>
<polygon id="Shape_50_" class="st0" points="105.7,63.5 103.9,63.5 103.9,58.6 103.9,57.7 100.1,57.7 100.1,63.5 97,63.5 97,67.3 
	97.8,67.3 99.7,67.3 99.7,69.1 99.7,79.9 100.5,80.8 101.3,81.7 107.5,81.7 107.5,78.8 107.5,77.9 105.7,77.9 103.9,77.9 
	103.9,67.3 108.7,67.3 108.7,64.4 108.7,63.5 "/>
<path id="Shape_55_" class="st0" d="M58.3,67.1c-2.3,0-4.2,1.9-4.2,4.2v11.2h-3.9v0.9H55V72.7c0-2.6,2.1-4.7,4.7-4.7
	c0.2,0,0.3,0,0.5,0v-0.5C59.6,67.3,58.9,67.1,58.3,67.1L58.3,67.1z"/>
<path id="Shape_54_" class="st0" d="M66.1,65.7v16.8H62v0.9H67V66.8C66.7,66.4,66.4,66.1,66.1,65.7z"/>
<path id="Shape_53_" class="st0" d="M63.6,64c-1.3-1-2.9-1.6-4.5-1.6c-1.6,0-3.2,0.6-4.3,1.8c-0.2,0.2-0.4,0.4-0.6,0.7l-0.6,0.8
	l-0.4-1.8L52.8,63h-3.6v18.5h3.8V71.3c0-2.9,2.3-5.2,5.2-5.2c0.9,0,1.8,0.2,2.6,0.7l0.3,0.1v14.6h4V65.6C64.7,65,64.2,64.4,63.6,64z
	"/>
<g>
	<polygon class="st0" points="13.4,83.6 0.5,51.6 9,51.6 16.8,72.5 24.5,51.6 32.8,51.6 20,83.6 	"/>
	<path d="M32.1,52.1L19.7,83.2h-6L1.2,52.1h7.5l8.1,21.7l8.1-21.7H32.1 M33.5,51.2h-1.4h-7.3h-0.6L24,51.8l-7.2,19.4L9.6,51.8
		l-0.2-0.6H8.7H1.2h-1.4l0.5,1.3l12.5,31.1l0.2,0.6h0.6h6h0.6l0.2-0.6L33,52.4L33.5,51.2L33.5,51.2z"/>
</g>
<path class="st0" d="M29.9,76.8L29.9,76.8c0-4,3-5.8,7.2-5.8c1.8,0,3.1,0.3,4.4,0.7v-0.3c0-2.1-1.3-3.3-3.9-3.3c-1.9,0-3.3,0.4-5,1
	l-1.3-3.9c2-0.9,3.9-1.4,7-1.4c2.8,0,4.8,0.7,6.1,2c1.3,1.3,1.9,3.3,1.9,5.7V82h-4.9v-1.9c-1.2,1.4-3,2.3-5.4,2.3
	C32.7,82.3,29.9,80.4,29.9,76.8z M41.7,75.7v-0.9c-0.9-0.4-2-0.7-3.3-0.7c-2.2,0-3.5,0.9-3.5,2.5v0.1c0,1.4,1.1,2.2,2.8,2.2
	C40,78.8,41.7,77.5,41.7,75.7z"/>
<path class="st0" d="M68.7,72.9L68.7,72.9c0-5.5,4.1-9.9,9.9-9.9c3.6,0,5.8,1.2,7.6,3.2l-3.3,3.5c-1.2-1.3-2.4-2.1-4.3-2.1
	c-2.7,0-4.6,2.4-4.6,5.2v0.1c0,2.9,1.9,5.2,4.8,5.2c1.8,0,3-0.8,4.3-2l3.1,3.2c-1.8,2-4,3.5-7.7,3.5C72.8,82.7,68.7,78.3,68.7,72.9z
	"/>
<polygon id="Shape_98_" class="st0" points="94,50.8 94,50.8 95.3,49.1 95.3,49.1 "/>
<polygon id="Shape_97_" class="st0" points="65.1,47.4 65.1,47.4 66.4,48.4 66.4,48.4 "/>
<polygon id="Shape_96_" class="st0" points="93.3,51.7 88.7,48.1 83,52.5 77.4,48.1 71.8,52.5 66.4,48.4 66.4,48.4 71.8,52.5 
	77.4,48.1 83,52.5 88.7,48.1 93.3,51.7 94,50.8 94,50.8 "/>
<polygon id="Shape_95_" class="st0" points="93.5,53 92.8,52.5 88.7,49.3 83.6,53.2 83,53.7 82.5,53.2 77.4,49.3 72.3,53.2 
	71.8,53.7 71.2,53.2 65.9,49.1 65.1,50.1 71.8,55.2 77.4,50.8 83,55.2 88.7,50.8 93.3,54.4 95.3,51.8 94.8,51.4 94.1,52.3 "/>
<polygon id="Shape_94_" class="st0" points="71.8,52.5 77.4,48.1 83,52.5 88.7,48.1 93.3,51.7 94,50.8 95.3,49.1 88.7,44.1 83,48.4 
	77.4,44.1 71.8,48.4 67.1,44.8 65.1,47.4 66.4,48.4 "/>
<polygon id="Shape_93_" class="st0" points="94,50.8 93.3,51.7 88.7,48.1 83,52.5 77.4,48.1 71.8,52.5 66.4,48.4 65.1,47.4 
	65.1,47.4 67.1,44.8 71.8,48.4 77.4,44.1 83,48.4 88.7,44.1 95.3,49.1 95.3,49.1 "/>
<path id="Shape_92_" class="st0" d="M122.5,30.4c-2.8,0-5,2.3-5,5V49h-4.8V50h5.8V37.1c0-3.1,2.5-5.6,5.6-5.6c0.2,0,0.4,0,0.6,0
	v-0.6C124,30.6,123.3,30.4,122.5,30.4L122.5,30.4z"/>
<path id="Shape_91_" class="st0" d="M131.9,28.7V49H127V50h6V30C132.6,29.5,132.3,29.1,131.9,28.7z"/>
<path id="Shape_90_" class="st0" d="M128.9,26.6c-1.6-1.2-3.5-1.9-5.5-1.9c-2,0-3.9,0.8-5.2,2.2c-0.2,0.2-0.5,0.5-0.7,0.8l-0.8,1
	l-0.5-2.2l-0.3-1.1h-4.3v22.3h4.6V35.4c0-3.4,2.8-6.2,6.2-6.2c1.1,0,2.2,0.3,3.1,0.8l0.3,0.2v17.6h4.8V28.5
	C130.2,27.8,129.6,27.2,128.9,26.6z"/>
<polygon id="Shape_89_" class="st0" points="101.8,49 101.8,50 108.4,50 108.4,26 107.3,26 107.3,49 "/>
<polygon id="Shape_88_" class="st0" points="101.8,22 101.8,23.1 108.4,23.1 108.4,16.7 107.3,16.7 107.3,22 "/>
<polygon id="Shape_87_" class="st0" points="100.7,24.9 100.7,47.8 101.8,47.8 106.1,47.8 106.1,26 106.1,24.9 "/>
<polygon id="Shape_86_" class="st0" points="100.7,15.6 100.7,20.8 101.8,20.8 106.1,20.8 106.1,16.7 106.1,15.6 "/>
<rect id="Rectangle-path_6_" x="7.2" y="1.6" class="st0" width="1.1" height="27.9"/>
<polygon id="Shape_85_" class="st0" points="25.4,38 25.4,31.8 24.4,31.8 24.4,36.9 1.5,36.9 1.5,38 "/>
<polygon id="Shape_84_" class="st0" points="8.3,30.7 6,30.7 6,1.6 6,0.5 0.4,0.5 0.4,35.7 1.5,35.7 23.2,35.7 23.2,31.8 23.2,30.7 
	"/>
<polygon id="Shape_83_" class="st0" points="79.8,36.9 80.8,38 86.3,38 89.4,38 89.4,32 88.4,32 88.4,36.9 "/>
<polygon id="Shape_82_" class="st0" points="83.8,18.7 83.8,29.7 84.9,29.7 84.9,29.4 84.9,19.8 91,19.8 91,13.8 89.9,13.8 
	89.9,18.7 "/>
<rect id="Rectangle-path_5_" x="83.8" y="6.5" class="st0" width="1.1" height="5"/>
<polygon id="Shape_81_" class="st0" points="84.9,12.7 82.6,12.7 82.6,6.5 82.6,5.4 77.9,5.4 77.9,12.7 73.9,12.7 73.9,17.5 
	75,17.5 77.3,17.5 77.3,19.8 77.3,33.3 78.4,34.6 79.4,35.7 87.2,35.7 87.2,32 87.2,30.9 84.9,30.9 82.6,30.9 82.6,17.5 88.7,17.5 
	88.7,13.8 88.7,12.7 "/>
<path id="Shape_80_" class="st0" d="M61.9,28.1l-3.7-1.4c-1.6-0.6-3-1.5-4.1-2.7c0.9,1.8,2.5,3.1,4.9,4l3.7,1.4
	c0.3,0.1,0.6,0.3,0.9,0.5c0,0,0-0.1,0-0.1C63.6,29.5,63.6,28.7,61.9,28.1z"/>
<path id="Shape_79_" class="st0" d="M61.6,18.2c-0.7,0-1.5,0.2-1.5,0.8c0,0.4,0.1,0.9,1.1,1.3c0.2-0.6,0.9-1,2-1c0.1,0,0.1,0,0.2,0
	C63.1,18.7,62.4,18.3,61.6,18.2z"/>
<path id="Shape_78_" class="st0" d="M66.4,21.9l0.2,0.4l4.6-2.8c-0.3-0.5-0.6-1-0.9-1.4l-4.5,2.8C66,21.2,66.2,21.5,66.4,21.9
	L66.4,21.9z"/>
<path id="Shape_77_" class="st0" d="M62,37.7c-1.9,0-3.7-0.3-5.4-1.1c1.4,1.1,3.7,2.2,7.1,2.2c5.3,0,9.1-3.1,9.1-7.3
	c0.1-1.7-0.5-3.3-1.6-4.6c0.3,0.9,0.5,1.9,0.5,2.9C71.8,34.4,67.7,37.7,62,37.7z"/>
<path id="Shape_76_" class="st0" d="M68.2,24.7c-0.9-0.6-1.8-1.1-2.8-1.5l-3.8-1.5L61,21.5c-1.3-0.5-2-1.3-2-2.5c0-1.2,1.1-2,2.7-2
	c2.1,0,3.2,2,3.6,2.8l4.3-2.6c-0.7-1.1-1.5-2-2.5-2.8c-1.7-1.3-3.7-2-5.8-1.9c-4.8,0-7.8,3.2-7.8,6.1c0,0.7,0.1,1.4,0.2,2
	c0.6,2.3,2.2,3.9,5,5l3.7,1.4c1.7,0.6,2.5,1.5,2.5,2.7c0,0.3-0.1,0.7-0.3,1c-0.4,0.6-1.2,1.2-3,1.2c-0.3,0-0.7,0-1-0.1
	c-0.8-0.2-1.5-0.6-2-1.2c-0.4-0.4-0.7-0.9-0.9-1.4l-4.8,2.4c0.3,0.5,0.6,1.1,1,1.5c0.2,0.3,0.5,0.6,0.8,0.9c1.3,1.2,3.6,2.6,7.4,2.6
	c4.9,0,8.5-2.8,8.5-6.7C70.6,27.3,69.6,25.8,68.2,24.7z"/>
<path id="Shape_75_" class="st0" d="M37.8,37.7c-2,0-3.9-0.4-5.6-1.3c5,3.6,11.8,3.1,16.1-1.3S53.2,24,49.6,19
	c0.8,1.7,1.3,3.6,1.3,5.6C50.9,31.8,45,37.7,37.8,37.7L37.8,37.7z"/>
<path id="Shape_74_" class="st0" d="M39.5,20.7c0.6,0,1.2,0.1,1.8,0.3c-1.9-2-5.1-2-7,0c-2,1.9-2,5.1,0,7c-0.2-0.6-0.3-1.1-0.3-1.7
	C33.9,23.2,36.4,20.7,39.5,20.7L39.5,20.7z"/>
<path id="Shape_73_" class="st0" d="M44.7,15c-4.5-3.2-10.5-3-14.7,0.6s-5.3,9.6-2.8,14.5s8,7.4,13.4,6.1s9.1-6.1,9.1-11.6
	C49.7,20.8,47.9,17.2,44.7,15L44.7,15z M31.6,24.6c0-3,2.2-5.6,5.2-6.1s5.9,1.2,6.9,4.1c0.2,0.6,0.3,1.3,0.3,2
	c0,3.4-2.8,6.2-6.2,6.2c-0.7,0-1.4-0.1-2-0.4C33.3,29.6,31.6,27.2,31.6,24.6L31.6,24.6z"/>
<path id="Shape_57_" class="st0" d="M49.6,47c0.1,0.4,0.1,0.8,0.1,1.2c0,3.7-3,6.7-6.7,6.7c-0.4,0-0.8,0-1.2-0.1
	c1.8,1,4,0.9,5.7-0.1c1.8-1,2.8-2.9,2.8-5C50.3,48.8,50.1,47.8,49.6,47z"/>
<path id="Shape_56_" class="st0" d="M48.3,46c-0.1-0.4-0.3-0.7-0.5-1c-1.3-1.9-3.6-2.9-5.9-2.4c-2.3,0.5-4.1,2.2-4.5,4.5
	c-0.2,0.8-0.2,1.6,0,2.3c0.2,1.1,0.8,2.1,1.6,2.9c0.3,0.3,0.5,0.5,0.8,0.7c0.6,0.4,1.3,0.7,2.1,0.9c0.8,0.2,1.6,0.2,2.3,0
	c1.1-0.2,2.1-0.8,2.9-1.6C48.7,50.6,49.2,48.1,48.3,46L48.3,46z M44.7,45.9c0.5,0,0.9,0.4,0.9,0.9c0,0.5-0.4,0.9-0.9,0.9
	c-0.5,0-0.9-0.4-0.9-0.9c0-0.2,0.1-0.4,0.2-0.6C44.3,46,44.5,45.9,44.7,45.9L44.7,45.9z M41.3,45.9c0.5,0,0.8,0.4,0.8,0.9
	c0,0.5-0.4,0.8-0.9,0.8c-0.5,0-0.8-0.4-0.8-0.9c0-0.2,0.1-0.4,0.3-0.6C40.8,46,41.1,45.9,41.3,45.9L41.3,45.9z M43,52
	c-1.3,0-2.6-0.8-3.2-2l0.8-0.4c0,0.1,0.1,0.1,0.1,0.2c0,0.1,0.1,0.1,0.1,0.2c0.5,0.6,1.3,1,2.1,1s1.6-0.4,2.1-1
	c0.1-0.1,0.1-0.1,0.1-0.2c0-0.1,0.1-0.1,0.1-0.2l0.8,0.4C45.6,51.3,44.3,52,43,52L43,52z"/>
<path id="Shape_58_" class="st0" d="M77.1,69.7c0.3-0.4,0.7-0.7,1.2-1c-2.3,0.2-4,2.2-3.8,4.5c0.2,2.3,2.2,4,4.5,3.8
	c-0.5-0.2-0.9-0.4-1.3-0.7C75.7,74.7,75.4,71.7,77.1,69.7L77.1,69.7z"/>
<path id="Shape_59_" class="st0" d="M46.9,70.3c0.2,1.7,0.1,5.5,0,7.7c0.5-2.3,1.1-6.2,0.7-9.2c-0.3-3.1-2.1-4.6-4.1-5.4
	c-1.9-0.8-4-1.1-6-0.8c-0.9,0.1-1.7,0.4-2.3,0.9c0.9-0.4,3.2-0.5,5.2-0.3C45.1,64,46.4,65.3,46.9,70.3z"/>
<rect id="Rectangle-path_4_" x="13.6" y="83.8" class="st0" width="8.3" height="0.8"/>
<polygon id="Rectangle-path_7_" class="st0" points="20.8,82.9 22.2,82.5 21.8,84.2 20.3,84.3 "/>
</svg>
